<svg width="24" height="24" viewBox="0 0 24 24" fill="none" xmlns="http://www.w3.org/2000/svg">
<g id="svg-icon">
<path id="Union" fill-rule="evenodd" clip-rule="evenodd" d="M1 7.0079V16.9999C1 19.7614 3.23858 21.9999 6 21.9999H18C20.7614 21.9999 23 19.7614 23 16.9999V7.00797M20.966 6.54654L13.8741 12.22C12.7784 13.0966 11.2216 13.0966 10.1259 12.22L3.03404 6.54654C3.2526 5.10483 4.49727 3.99994 6 3.99994H18C19.5027 3.99994 20.7474 5.10483 20.966 6.54654ZM3 9.08056L8.87652 13.7818C10.7026 15.2427 13.2974 15.2427 15.1235 13.7818L21 9.08056V16.9999C21 18.6568 19.6569 19.9999 18 19.9999H6C4.34315 19.9999 3 18.6568 3 16.9999V9.08056ZM1.00001 6.98954C1.00562 4.2329 3.24204 1.99994 6 1.99994H18C20.7579 1.99994 22.9943 4.23286 23 6.98947" fill="black" fill-opacity="0.4"/>
</g>
</svg>
